<svg width="420" height="420" viewBox="0 0 420 420" fill="none" xmlns="http://www.w3.org/2000/svg">
  <defs>
    <linearGradient id="g1" x1="70" y1="39" x2="348" y2="377" gradientUnits="userSpaceOnUse">
      <stop stop-color="#FF5C8A"/>
      <stop offset="0.48" stop-color="#662D91"/>
      <stop offset="1" stop-color="#171313"/>
    </linearGradient>
    <linearGradient id="g2" x1="129" y1="90" x2="286" y2="281" gradientUnits="userSpaceOnUse">
      <stop stop-color="#FFF4D8"/>
      <stop offset="1" stop-color="#E8B756"/>
    </linearGradient>
    <filter id="shadow" x="22" y="20" width="376" height="382" filterUnits="userSpaceOnUse" color-interpolation-filters="sRGB">
      <feDropShadow dx="0" dy="20" stdDeviation="20" flood-color="#662D91" flood-opacity="0.28"/>
    </filter>
  </defs>
  <rect width="420" height="420" rx="112" fill="#F6F0E8"/>
  <g filter="url(#shadow)">
    <path d="M104 136C104 100.654 132.654 72 168 72H252C287.346 72 316 100.654 316 136V334C316 341.732 309.732 348 302 348H118C110.268 348 104 341.732 104 334V136Z" fill="url(#g1)"/>
    <path d="M139 147C139 128.778 153.778 114 172 114H248C266.222 114 281 128.778 281 147V300C281 307.732 274.732 314 267 314H153C145.268 314 139 307.732 139 300V147Z" fill="white" fill-opacity="0.14"/>
    <path d="M157 147C157 137.059 165.059 129 175 129H245C254.941 129 263 137.059 263 147V158H157V147Z" fill="#171313" fill-opacity="0.3"/>
    <path d="M178 102C178 84.3269 192.327 70 210 70C227.673 70 242 84.3269 242 102" stroke="#171313" stroke-width="18" stroke-linecap="round"/>
    <path d="M169 190C176.5 171.5 193 160 210 160C227 160 243.5 171.5 251 190L239 199C234 186.5 224.5 179 210 179C195.5 179 186 186.5 181 199L169 190Z" fill="url(#g2)"/>
    <path d="M177 203H243L232 282H188L177 203Z" fill="url(#g2)"/>
    <path d="M198 203V282" stroke="#171313" stroke-opacity="0.32" stroke-width="8" stroke-linecap="round"/>
    <path d="M222 203V282" stroke="#171313" stroke-opacity="0.32" stroke-width="8" stroke-linecap="round"/>
    <circle cx="286" cy="115" r="18" fill="#6EE7B7"/>
    <circle cx="307" cy="153" r="8" fill="#FF5C8A"/>
    <circle cx="124" cy="251" r="10" fill="#E8B756"/>
  </g>
  <text x="210" y="384" text-anchor="middle" font-family="Inter, Arial, sans-serif" font-size="28" font-weight="900" fill="#171313" letter-spacing="-1">Pocket My Closet</text>
</svg>
